<svg viewBox="0 0 1882 1981" xmlns="http://www.w3.org/2000/svg" xml:space="preserve" style="fill-rule:evenodd;clip-rule:evenodd;stroke-linejoin:round;stroke-miterlimit:2">
  <path d="M1880.19 2198.61c0 8.06-5.36 13.44-13.43 13.44-17.45 0-32.23 14.77-32.23 32.24v627.29c0 165.22-119.55 256.56-278.05 256.56-112.84 0-239.1-69.85-239.1-143.73 0-25.52 20.15-49.7 47.01-49.7 22.84 0 47.02 16.12 47.02 40.3 2.69 95.36 80.6 126.26 145.07 126.26 111.49 0 150.44-100.74 150.44-229.69v-67.16c-124.92 116.85-425.81 57.75-425.81-210.9v-325.06c0-17.46-14.77-32.24-32.24-32.24-8.05 0-13.43-6.71-13.43-13.42 0-8.07 5.38-13.44 13.43-13.44l128.96-24.17c17.46 0 30.89 13.42 30.89 30.89v390.88c0 311.63 298.2 255.21 298.2 81.94v-444.61c0-17.47-14.78-32.24-32.24-32.24-8.06 0-13.43-5.38-13.43-13.44 0-6.71 5.37-13.42 13.43-13.42h192.08c8.07 0 13.43 6.71 13.43 13.42Zm124.95 659.53c-42.99 0-77.91-34.92-77.91-77.9 0-42.99 34.92-77.91 77.91-77.91 42.98 0 77.91 34.92 77.91 77.91 0 42.98-34.93 77.9-77.91 77.9Z" style="fill:#ed754c;fill-rule:nonzero" transform="translate(-633 -1664)"/>
  <path d="m1534.31 3534.2-38.09-62.46-21.16-1 46.13 75.84-47.02 44.29 20.93.99 64.57-58.51-5.23 110.35 17.75.84 7.99-168.82-17.75-.84-1.62 34.35-26.5 24.97Zm132.42 55.82 17.69-1.61-10.92-119.54-17.7 1.61 5.81 63.51c.11 23.78-14.11 40.87-39.33 42.71l1.64 17.92c20.17-2.07 34.04-12.94 40.38-31.14l2.43 26.54Zm68.61-130.88-16.85 3.98 18.48 77.09c6.14 24.99 25.72 36.51 54.54 29.7 19.95-4.73 31.22-13.48 43.93-27.02l-10.3-10.9c-10.2 11.31-21.02 19.01-33.87 22.06-20.62 4.87-33.67-2.81-37.71-19.87l-1.62-6.87 38.34-9.08c27.44-6.72 40.58-23.41 35.75-43.8-4.77-20.17-23.96-32.02-48.12-26.3-18.62 4.41-32 14.13-38.32 28.96l-4.25-17.95Zm-606.33 25.32 16.52 7.69 76.33-73.74-5.72 106.65 16.93 7.89 5.31-128.96 9.25-8c9.05-8.09 18.48-9.98 26.95-6.04 5.36 2.5 9.55 6.46 12.87 12.28l13.07-10.24c-4.11-8.45-10.09-14.5-19.17-18.73-14.45-6.74-29.85-3.36-44.46 10.19l-107.88 101.01Zm815.25 36.76c20.49-10.46 31.11-26.95 28.38-49.26 13.33 15.5 32.37 18.99 52.55 8.93 19.27-9.86 29.78-25.02 28.59-45.29l12.09 24.26 15.69-7.83-53.54-107.43-15.7 7.82 26.32 52.8c11.48 23.04 6.15 45.54-15.56 57.13-18.76 9.34-35.35 3.62-44.9-15.54l-30.89-61.98-16.1 8.03 26.31 52.8c11.48 23.03 6.56 45.34-15.36 57.02-18.55 9.25-35.35 3.62-44.9-15.54l-30.88-61.98-15.9 7.93 33.02 66.26c12.9 25.89 35.7 34.37 60.78 21.87Zm-166.11-57.23c16.4-3.88 28.81 2.08 31.86 14.93 3.04 12.86-5.74 21.26-25.25 25.87l-36.35 8.6-3.3-13.96c.6-17.23 13.31-30.77 33.04-35.44Zm-343.64 20.41c6.07 1.02 11.35-2.94 12.45-9.45.68-4.05-.29-7.9-3.31-10.5l10.17-15.14-9.88-1.67-13.28 14.39c-2.55 2.81-4.39 5.5-5 9.1-1.21 7.18 3.01 12.28 8.85 13.27Zm-387.8-51.02c29.39 19.98 64.13 13.84 84.23-15.73 20.23-29.77 13.28-64.51-16.11-84.49-29.39-19.97-64.25-13.65-84.48 16.11-20.11 29.58-13.03 64.14 16.36 84.11Zm9.09-13.37c-20.72-14.09-25.36-39.27-10.63-60.94 14.85-21.85 39.97-26.81 60.7-12.72 20.72 14.08 25.36 39.27 10.51 61.12-14.73 21.67-39.85 26.62-60.58 12.54Zm1159.4-78.11 13.07-12.03-81.31-88.31-13.07 12.04 43.2 46.91c14.54 18.82 13.63 41.03-5.28 57.82l12.19 13.24c14.76-13.9 19.17-30.97 13.15-49.27l18.05 19.6Zm-1335.896-52.18 12.657 12.47 41.403-42.03c17.904-18.17 40.918-20.76 58.923-3.66 14.763 14.55 14.903 32.26.031 47.35l-48.597 49.33 12.656 12.47 51.953-52.73c20.3-20.61 20.77-45.1.81-64.76-15.577-15.02-33.17-19.89-51.957-12.17l19.023-19.31-12.656-12.47-84.246 85.51Zm1397.986-9.58 11.1-13.86-46.04-36.89c-19.91-15.95-24.84-38.57-9.67-58.24 12.96-16.17 30.57-18.12 47.1-4.87l54.04 43.29 11.11-13.87-57.78-46.28c-22.57-18.09-46.98-16.04-64.49 5.83-13.35 17.03-16.39 35.03-6.8 52.93l-21.15-16.95-11.11 13.86 93.69 75.05Zm-1453.1-58.54 10.633 14.23 96.17-71.83-10.633-14.24-51.096 38.17c-20.205 12.53-42.202 9.35-56.968-11.18l-14.416 10.77c12.314 16.1 28.839 22.24 47.661 18.13l-21.351 15.95Zm1578.94-122.91c16.84-31.29 7.16-65.21-24.34-82.16-31.69-17.05-65.53-6.55-82.37 24.74-16.84 31.29-6.95 65.32 24.74 82.37 31.49 16.95 65.13 6.34 81.97-24.95Zm-14.24-7.66c-11.87 22.06-36.45 29.27-59.51 16.86-23.27-12.52-30.79-37-18.92-59.07 11.87-22.06 36.45-29.27 59.72-16.75 23.06 12.41 30.58 36.89 18.71 58.96ZM835.891 3012.3l-151.123 75.67 7.955 15.89 151.123-75.67-7.955-15.89Zm1609.499-.66 5.94-17.22-81.25-68.28 106.66-5.36 6.1-17.66-128.81 8.08-8.92-8.37c-8.99-8.17-11.85-17.34-8.8-26.17 1.93-5.6 5.44-10.17 10.88-14.08l-11.54-11.93c-7.98 4.95-13.38 11.52-16.65 21-5.2 15.07-.24 30.03 14.75 43.16l111.64 96.83Zm-1759.425-46.71c11.688 33.56 43.236 49.35 77.007 37.58 33.986-11.84 49.115-43.88 37.427-77.44-11.688-33.55-43.451-49.26-77.437-37.42-33.771 11.76-48.686 43.73-36.997 77.28Zm15.272-5.31c-8.242-23.67 3.047-46.65 27.784-55.27 24.952-8.69 48.079 2.31 56.321 25.97 8.242 23.66-3.047 46.65-27.999 55.34-24.737 8.62-47.864-2.38-56.106-26.04Zm-63.85-210.91 2.66 17.57 24.097-3.65c-14.469 10.95-21.159 27.63-18.09 47.89 5.032 31.72 31.761 50.03 64.867 45.01 33.782-5.11 54.088-30.76 49.247-62.74-3.035-20.05-14.362-34-31.388-39.94l18.017-2.73c24.773-3.75 43.095 10.75 47.016 36.65 2.161 15.8-1.143 28.97-9.054 42.15l14.74 6.06c8.628-16.05 12.356-32.51 9.751-51.24-5.455-36.03-30.88-56.37-65.563-51.12l-106.3 16.09Zm107.439 43.18c3.614 23.87-11.429 43.19-35.718 47.1-24.582 3.49-44.672-10.52-48.286-34.39-3.579-23.65 11.205-43.16 35.978-46.91 24.323-3.68 44.447 10.55 48.026 34.2Zm1662.154-18.14c.88-6.09-3.21-11.28-9.75-12.22-4.06-.58-7.89.48-10.4 3.57l-15.4-9.8-1.42 9.92 14.71 12.92c2.87 2.49 5.61 4.26 9.21 4.78 7.22 1.03 12.21-3.31 13.05-9.17Zm107.17-94.92c.94-35.52-22.98-61.45-58.73-62.4-35.97-.95-61.47 23.66-62.41 59.19-.94 35.52 23.21 61.45 59.19 62.4 35.74.95 61.01-23.67 61.95-59.19Zm-16.17-.43c-.66 25.05-19.36 42.55-45.54 41.86-26.41-.7-44.15-19.18-43.49-44.22.67-25.05 19.36-42.55 45.77-41.85 26.19.69 43.93 19.16 43.26 44.21Zm-1864.047-52.93c-1.117 35.51 22.675 61.56 58.418 62.68 35.971 1.14 61.582-23.35 62.7-58.87 1.118-35.52-22.902-61.57-58.873-62.7-35.743-1.12-61.127 23.37-62.245 58.89Zm16.165.51c.788-25.05 19.567-42.46 45.749-41.63 26.409.83 44.056 19.39 43.268 44.43-.789 25.04-19.568 42.46-45.977 41.62-26.182-.82-43.829-19.38-43.04-44.42Zm1859.962-70.65-2.75-17.55-24.08 3.78c14.41-11.02 21.01-27.74 17.83-47.99-5.2-31.69-32.02-49.85-65.1-44.66-33.76 5.29-53.93 31.05-48.91 63 3.14 20.03 14.54 33.92 31.59 39.77l-18 2.83c-24.75 3.88-43.15-10.53-47.21-36.4-2.24-15.79.99-28.98 8.83-42.2l-14.77-5.98c-8.54 16.09-12.18 32.57-9.48 51.29 5.65 36 31.18 56.21 65.84 50.77l106.21-16.66Zm-1768.484-24.32c-.905 6.09 3.156 11.3 9.69 12.27 4.055.6 7.894-.44 10.425-3.52l15.34 9.88 1.475-9.91-14.646-13c-2.852-2.5-5.58-4.29-9.185-4.82-7.209-1.07-12.227 3.25-13.099 9.1Zm1660.814-18.28c-3.74-23.85 11.2-43.25 35.47-47.29 24.56-3.62 44.73 10.28 48.47 34.13 3.7 23.63-10.98 43.22-35.73 47.1-24.3 3.82-44.5-10.31-48.21-33.94ZM704.42 2292.86l-6.034 17.19 80.898 68.7-106.693 4.81-6.185 17.62 128.85-7.41 8.872 8.43c8.947 8.21 11.756 17.4 8.664 26.21-1.961 5.59-5.491 10.14-10.955 14.02l11.482 12c8.001-4.92 13.435-11.46 16.754-20.92 5.28-15.04.401-30.03-14.519-43.23l-111.134-97.42Zm1756 46.8c-11.85-33.5-43.48-49.13-77.19-37.19-33.93 12-48.89 44.12-37.04 77.62 11.86 33.5 43.7 49.05 77.63 37.04 33.71-11.93 48.46-43.98 36.6-77.47Zm-15.24 5.39c8.36 23.62-2.81 46.67-27.51 55.41-24.91 8.81-48.09-2.07-56.45-25.69s2.81-46.66 27.72-55.48c24.7-8.74 47.88 2.14 56.24 25.76ZM747.094 2206.1c-16.998 31.2-7.489 65.17 23.916 82.28 31.604 17.21 65.501 6.89 82.499-24.32 16.997-31.2 7.288-65.28-24.317-82.5-31.404-17.1-65.101-6.67-82.098 24.54Zm1563.126 86.85 150.73-76.45-8.04-15.85-150.73 76.45 8.04 15.85Zm-1548.924-79.12c11.985-22 36.595-29.09 59.598-16.56 23.203 12.64 30.598 37.16 18.613 59.16-11.986 22.01-36.595 29.09-59.799 16.46-23.003-12.53-30.398-37.05-18.412-59.06Zm112.55-188.52-11.178 13.81 45.856 37.12c19.83 16.05 24.646 38.7 9.379 58.29-13.04 16.11-30.66 17.96-47.125 4.64l-53.823-43.57-11.178 13.81 57.541 46.58c22.485 18.19 46.9 16.27 64.526-5.51 13.437-16.96 16.563-34.94 7.061-52.89l21.069 17.05 11.178-13.8-93.306-75.53Zm1447.024 58.31-10.7-14.18-95.81 72.32 10.71 14.18 50.9-38.42c20.14-12.64 42.15-9.57 57.02 10.89l14.36-10.84c-12.39-16.04-28.95-22.1-47.75-17.89l21.27-16.06Zm-55.45-67.83-12.72-12.4-41.19 42.23c-17.81 18.26-40.81 20.97-58.9 3.95-14.84-14.47-15.06-32.18-.27-47.35l48.34-49.57-12.71-12.4-51.69 52.99c-20.2 20.71-20.54 45.2-.48 64.76 15.65 14.95 33.26 19.72 52.01 11.91l-18.92 19.41 12.72 12.4 83.81-85.93Zm-1329.197-51.92-13.129 11.97 80.866 88.71 13.13-11.97-42.964-47.13c-14.444-18.89-13.417-41.09 5.574-57.79l-12.123-13.29c-14.828 13.82-19.324 30.87-13.4 49.2l-17.954-19.7Zm1161.057-90.92c-29.49-19.82-64.2-13.51-84.15 16.17-20.08 29.86-12.95 64.57 16.54 84.4 29.49 19.82 64.32 13.33 84.4-16.54 19.95-29.68 12.7-64.2-16.79-84.03Zm-9.03 13.43c20.8 13.98 25.56 39.14 10.95 60.88-14.74 21.92-39.84 27.01-60.64 13.03-20.79-13.98-25.56-39.15-10.81-61.07 14.61-21.74 39.71-26.82 60.5-12.84Zm-880.13-100.48c-20.54 10.36-31.24 26.79-28.63 49.12-13.25-15.57-32.27-19.16-52.51-9.2-19.31 9.75-29.9 24.86-28.81 45.14l-11.97-24.32-15.73 7.74 52.99 107.71 15.73-7.74-26.04-52.93c-11.36-23.1-5.92-45.58 15.85-57.05 18.81-9.25 35.37-3.44 44.83 15.77l30.56 62.14 16.15-7.95-26.04-52.93c-11.37-23.1-6.33-45.37 15.64-56.95 18.6-9.15 35.37-3.44 44.83 15.77l30.56 62.14 15.95-7.85-32.68-66.42c-12.77-25.96-35.54-34.56-60.68-22.19Zm806.55 36.38-16.55-7.61-75.95 74.14 5.17-106.68-16.97-7.8-4.65 128.98-9.21 8.05c-9.01 8.14-18.42 10.08-26.91 6.18-5.38-2.48-9.59-6.42-12.94-12.22l-13.01 10.31c4.15 8.43 10.16 14.45 19.26 18.64 14.49 6.66 29.87 3.2 44.4-10.43l107.36-101.56Zm-297.02 3.05c-6.05-1.05-11.36 2.88-12.49 9.39-.71 4.04.24 7.9 3.26 10.51l-10.26 15.09 9.88 1.72 13.35-14.33c2.57-2.79 4.42-5.47 5.05-9.06 1.24-7.18-2.95-12.31-8.79-13.32Zm-300.98 23.74 16.86-3.9-18.08-77.18c-6.02-25.02-25.54-36.64-54.39-29.97-19.97 4.62-31.28 13.31-44.07 26.79l10.25 10.96c10.26-11.26 21.11-18.91 33.98-21.89 20.64-4.77 33.66 2.97 37.61 20.06l1.59 6.88-38.39 8.88c-27.47 6.58-40.69 23.2-35.97 43.62 4.67 20.19 23.79 32.13 47.98 26.54 18.64-4.31 32.08-13.96 38.47-28.77l4.16 17.98Zm-42.79-5.07c-16.42 3.8-28.8-2.22-31.78-15.09-2.97-12.87 5.85-21.23 25.38-25.74l36.39-8.42 3.24 13.98c-.7 17.23-13.48 30.7-33.23 35.27Zm112.17-125.47-17.7 1.52 10.31 119.6 17.7-1.53-5.48-63.54c.01-23.78 14.32-40.79 39.54-42.51l-1.54-17.92c-20.18 1.96-34.11 12.77-40.54 30.93l-2.29-26.55Zm131.98 56.48 37.78 62.65 21.16 1.1-45.75-76.06 47.23-44.06-20.92-1.1-64.86 58.2 5.77-110.32-17.74-.93-8.82 168.78 17.74.93 1.79-34.35 26.62-24.84Z" style="fill:#ed764c;fill-rule:nonzero" transform="translate(-633 -1664)"/>
</svg>
